<?xml version="1.0" encoding="utf-8"?>
<!-- Generator: Adobe Illustrator 27.2.0, SVG Export Plug-In . SVG Version: 6.00 Build 0)  -->
<svg version="1.1" id="Layer_1" xmlns="http://www.w3.org/2000/svg" xmlns:xlink="http://www.w3.org/1999/xlink" x="0px" y="0px"
	 viewBox="0 0 572 65.1" style="enable-background:new 0 0 572 65.1;" xml:space="preserve">
<style type="text/css">
	.st0{fill:#00C4BA;}
</style>
<g id="Layer_2_1_">
	<g id="Layer_1-2">
		<path class="st0" d="M59.4,18.3c0.1-0.4-0.1-0.7-0.5-0.8c-0.1,0-0.2,0-0.2,0H28.9l0,0l0,0l0,0l0,0c0,0-5.4,0-6,0
			C11.2,17.7,3.7,23.4,3.7,32c-0.1,3.8,1.6,7.5,4.5,9.9c-4,1.6-6.1,4.3-6.1,7.8c0,2.7,1.5,5.2,3.9,6.5c-3.6,1.6-5.7,4.3-5.9,7.9
			c0,0.3,0,0.6,0.2,0.8c0.2,0.2,0.5,0.2,0.7,0.2h5.9c0.3,0,0.5-0.1,0.7-0.3c0.2-0.2,0.2-1.1,0.2-1.1c0-2.6,1.6-4.5,4.9-5.6
			c1.4,0.1,2.7,0.2,4.1,0.2h6.7l0,0H29l0,0l0,0h8.6c7.7,0.1,8.6,2.9,8.6,5c0,0.1,0,0.5,0,0.6c0,0.3,0,0.5,0.1,0.8
			c0.2,0.2,0.5,0.3,0.7,0.3h6c0.5,0,0.7,0,0.9-0.1s0.2-0.3,0.2-0.7c0-0.2,0-0.8,0-1.1c0-5.2-2.7-11.5-15.4-11.6h-9.8l0,0l0,0H24h-8
			c-4.2-0.1-6.3-1.2-6.3-3.3c0-2,2-2.9,3.5-3.4c2,0.7,4,1.2,6.1,1.5c0.8,0.1,1.8,0.3,3.2,0.4c2.8,0.1,5.5,0.1,8.3-0.1
			c2-0.2,4.1-0.5,6.1-0.9c7.7-2,12.4-7,12.4-13.8c0-2.7-0.8-5.4-2.4-7.6h6.6c0.9,0,1.2-0.1,1.5-0.4c0.1-0.2,0.2-0.3,0.4-0.5
			c1.1-1.8,2.4-3.5,3.9-4.9C59.3,18.5,59.4,18.4,59.4,18.3z M26.4,41c-9.4,0-15.2-3.7-15.2-9c0-5.4,5.8-8.8,15.2-8.8
			s15.2,3.5,15.2,8.8C41.7,37.4,35.9,41,26.4,41z"/>
		<path class="st0" d="M199.1,17.8c-15.2,0-24.2,9-24.2,24.1c0,14.5,9.2,23.2,24.7,23.2c11.2,0,19.2-4.6,23-13.3
			c0.2-0.5,0-1-0.5-1.2l0,0l-5.2-2.3c-0.2-0.1-0.5-0.1-0.7,0s-0.4,0.3-0.5,0.5c-2.6,5.9-8.1,9.1-16,9.1c-10.2,0-16.1-4.9-16.7-13.9
			h39.1c0.5,0,0.9-0.4,0.9-0.9l0,0v-3.5C223.1,25.7,214.4,17.8,199.1,17.8z M183.1,37.2c0.7-8,6.7-12.7,16.1-12.7
			c9.7,0,15.5,4.7,15.8,12.7H183.1z"/>
		<path class="st0" d="M306.2,17.9c-7.9,0-13.9,2.9-17.7,8.5V0.9c0-0.5-0.4-0.9-0.9-0.9h-6.1c-0.5,0-0.9,0.4-0.9,0.9l0,0v61.9
			c0,0.5,0.4,0.9,0.9,0.9l0,0h6.1c0.5,0,0.9-0.4,0.9-0.9l0,0V41.6c0-10,6.2-16.5,15.9-16.5c9.1,0,13.7,5.1,13.7,15v22.7
			c0,0.5,0.4,0.9,0.9,0.9l0,0h6.1c0.5,0,0.9-0.4,0.9-0.9l0,0V39.5C326,25.4,319.1,17.9,306.2,17.9"/>
		<path class="st0" d="M258.6,38.5l-14-1.6c-6.4-1-7.2-3.5-7.2-5.7c0-5.3,6.3-6.4,11.5-6.4c8.5,0,13.1,2.4,15.2,8
			c0.2,0.5,0.7,0.7,1.2,0.6l5.9-1.9c0.5-0.2,0.7-0.6,0.6-1.1c-2.2-8-10.1-12.5-22.4-12.5c-12.1,0-19.9,5.3-19.9,13.6
			c0,7,4.5,11.2,13.5,12.5l13.9,1.6c6,0.9,7.2,2.8,7.2,5.7c0,5.9-7.4,6.8-11.9,6.8c-9.1,0-14.7-3.1-16.6-9.3
			c-0.2-0.5-0.7-0.8-1.2-0.6l0,0l-5.9,1.9c-0.5,0.2-0.8,0.7-0.6,1.2l0,0c3,9.2,11,13.9,23.8,13.9c13,0,20.4-5.2,20.4-14.2
			C272,43.7,267.8,39.8,258.6,38.5"/>
		<path class="st0" d="M396.7,19.2h-6.1c-0.5,0-0.9,0.4-0.9,0.9l0,0v42.7c0,0.5,0.4,0.9,0.9,0.9l0,0h6.1c0.5,0,0.9-0.4,0.9-0.9l0,0
			V20.1C397.6,19.6,397.2,19.2,396.7,19.2L396.7,19.2"/>
		<path class="st0" d="M357,17.8c-15.2,0-24.2,9-24.2,24.1c0,14.5,9.2,23.2,24.7,23.2c11.2,0,19.2-4.6,23-13.3c0.2-0.5,0-1-0.5-1.2
			l-5.2-2.3c-0.2-0.1-0.5-0.1-0.7,0s-0.4,0.3-0.5,0.5c-2.6,5.9-8.1,9.1-16,9.1c-10.2,0-16.1-4.9-16.7-13.9H380
			c0.5,0,0.9-0.4,0.9-0.9l0,0v-3.5C381,25.7,372.3,17.8,357,17.8z M341,37.2c0.7-8,6.7-12.7,16.1-12.7c9.7,0,15.5,4.7,15.8,12.7H341
			z"/>
		<path class="st0" d="M397.2,3.8h-7.1c-0.5,0-0.9,0.3-0.9,0.8v8c0,0.5,0.5,0.8,0.9,0.8h7.1c0.5,0,0.9-0.3,0.9-0.8v-8
			C398.1,4.1,397.7,3.8,397.2,3.8"/>
		<path class="st0" d="M571.3,18.4c-1.1-0.2-2.3-0.3-3.5-0.3c-6.3-0.1-12,3.4-14.9,9v-7c0-0.5-0.4-0.9-0.9-0.9h-5.6
			c-0.5,0-0.9,0.4-0.9,0.9l0,0v42.7c0,0.5,0.4,0.9,0.9,0.9l0,0h6.1c0.5,0,0.9-0.4,0.9-0.9l0,0V44.9c0-7.1,1.5-11.9,4.6-15.1
			c2.6-2.6,5.8-3.8,10.3-3.8c0.9,0,1.7,0,2.6,0.2c0.5,0.1,1-0.2,1.1-0.8c0-0.1,0-0.1,0-0.2v-5.9C572,18.9,571.7,18.5,571.3,18.4"/>
		<path class="st0" d="M82.7,17.8c-15.2,0-24.2,9-24.2,24.1c0,14.5,9.2,23.2,24.7,23.2c11.2,0,19.2-4.6,23-13.3c0.2-0.5,0-1-0.5-1.2
			l0,0l-5.2-2.3c-0.2-0.1-0.5-0.1-0.7,0s-0.4,0.3-0.5,0.5c-2.6,5.9-8.1,9.1-16,9.1C73.1,57.9,67.2,53,66.6,44h39.1
			c0.5,0,0.9-0.4,0.9-0.9l0,0v-3.5C106.7,25.7,97.9,17.8,82.7,17.8z M66.6,37.2c0.7-8,6.7-12.7,16.1-12.7c9.7,0,15.5,4.7,15.8,12.7
			H66.6z"/>
		<path class="st0" d="M464.1,17.9c-7.3,0-13.1,3.3-16.4,9.3c-2.7-6-8.1-9.3-15.6-9.3c-6.7,0-11.8,2.6-14.9,7.5v-5.3
			c0-0.5-0.4-0.9-0.9-0.9l0,0h-5.8c-0.5,0-0.9,0.4-0.9,0.9v42.7c0,0.5,0.4,0.9,0.9,0.9l0,0h6.1c0.5,0,0.9-0.4,0.9-0.9l0,0v-23
			c0-9,5.2-14.8,13.1-14.8c9.2,0,11.1,6.9,11.1,12.6v25.1c0,0.5,0.4,0.9,0.9,0.9l0,0h6.1c0.5,0,0.9-0.4,0.9-0.9l0,0v-24
			c0-8.4,5-13.7,13.1-13.7c7.5,0,11.2,4.2,11.2,12.9v24.8c0,0.5,0.4,0.9,0.9,0.9l0,0h6.1c0.5,0,0.9-0.4,0.9-0.9l0,0V37.5
			C481.7,24.9,475.4,17.9,464.1,17.9"/>
		<path class="st0" d="M512.7,17.8c-15.2,0-24.2,9-24.2,24.1c0,14.5,9.2,23.2,24.7,23.2c11.2,0,19.2-4.6,23-13.3
			c0.2-0.5,0-1-0.5-1.2l-5.2-2.3c-0.2-0.1-0.5-0.1-0.7,0s-0.4,0.3-0.5,0.5c-2.6,5.9-8.1,9.1-16,9.1c-10.2,0-16.1-4.9-16.7-13.9h39.1
			c0.5,0,0.9-0.4,0.9-0.9l0,0v-3.5C536.7,25.7,528,17.8,512.7,17.8z M496.7,37.2c0.7-8,6.7-12.7,16.1-12.7c9.7,0,15.5,4.7,15.8,12.7
			H496.7z"/>
		<path class="st0" d="M141.2,18.4c-1.1-0.2-2.3-0.3-3.5-0.3c-6.3-0.1-12,3.4-14.9,9v-7c0-0.5-0.4-0.9-0.9-0.9h-5.6
			c-0.5,0-0.9,0.4-0.9,0.9v42.7c0,0.5,0.4,0.9,0.9,0.9h6.1c0.5,0,0.9-0.4,0.9-0.9V44.9c0-7.1,1.5-11.9,4.6-15.1
			c2.6-2.6,5.8-3.8,10.3-3.8c0.9,0,1.7,0,2.6,0.2c0.5,0.1,1-0.2,1.1-0.8c0-0.1,0-0.1,0-0.2v-5.9C141.9,18.9,141.6,18.5,141.2,18.4"
			/>
		<path class="st0" d="M160.9,29.8c2.6-2.6,5.7-3.7,10.1-3.8l0,0c0.4,0,0.7-0.2,0.9-0.5l0,0l0,0c1-2,2.3-3.8,3.9-5.4l0,0
			c0.2-0.2,0.3-0.4,0.3-0.7c0,0,0,0,0-0.1c0-0.5-0.4-0.9-0.9-1l0,0c-0.7-0.1-1.5-0.1-2.2-0.2c-0.2,0-1.8,0-2.1,0
			c-6.3-0.1-12,3.4-14.9,9v-7c0-0.5-0.4-0.9-0.9-0.9h-5.6c-0.5,0-0.9,0.4-0.9,0.9v42.7c0,0.5,0.4,0.9,0.9,0.9h6.1
			c0.5,0,0.9-0.4,0.9-0.9V44.9C156.3,37.8,157.7,33,160.9,29.8"/>
	</g>
</g>
</svg>
